<svg width="1000" height="1000" viewBox="0 0 1000 1000" fill="none" xmlns="http://www.w3.org/2000/svg">
<path d="M348.245 456.914V470.473C348.245 474.048 345.924 477.253 342.468 478.153C340.569 478.656 338.67 479.239 336.824 479.927C334.925 480.563 333.105 481.357 331.337 482.231C329.28 483.238 327.302 484.35 325.403 485.568C312.135 494.069 303.273 507.522 303.273 524.551V584.031C303.273 588.4 299.712 591.975 295.36 591.975H283.227C278.874 591.975 275.314 588.4 275.314 584.031V524.551C275.314 491.553 296.204 463.429 325.429 452.703C329.095 451.353 332.92 450.267 336.85 449.499C337.562 449.366 338.248 449.234 338.96 449.102C343.814 448.281 348.271 451.988 348.271 456.94L348.245 456.914Z" fill="white"/>
<path d="M336.773 415.892V429.716C336.773 433.503 334.135 436.787 330.443 437.502C328.728 437.819 327.04 438.217 325.352 438.667C289.743 447.777 263.34 480.245 263.34 518.803V584.03C263.34 588.426 259.806 591.975 255.427 591.975H243.241C238.863 591.975 235.328 588.426 235.328 584.03V518.803C235.328 487.183 247.884 459.085 269.117 438.879C269.407 438.614 269.75 437.872 269.512 437.025C269.328 436.363 268.932 436.072 268.141 436.072H235.988C232.559 436.072 230.713 440.203 233.06 442.719C235.408 445.235 237.518 447.671 239.575 450.293C240.92 452.014 240.999 454.398 239.892 456.278C237.438 460.436 235.249 464.752 233.271 469.175C231.952 472.194 230.739 475.239 229.684 478.338C228.919 480.509 226.018 480.748 224.91 478.735C214.069 459.191 195.605 444.493 173.554 438.773C171.919 438.349 170.257 437.952 168.569 437.634C164.824 436.892 162.08 433.662 162.08 429.848V415.945C162.08 411.549 165.615 408 169.993 408H328.86C333.238 408 336.773 411.549 336.773 415.945V415.892Z" fill="white"/>
<path d="M222.931 516.154C222.905 517.028 222.905 517.902 222.905 518.802V584.055C222.905 588.451 219.344 592 214.992 592H203.333C198.955 592 195.42 588.425 195.42 584.029V524.549C195.42 507.626 186.69 494.226 173.554 485.752C171.576 484.454 169.519 483.289 167.356 482.23C165.641 481.382 163.874 480.641 162.107 480.005C160.999 479.581 159.865 479.21 158.757 478.866C157.886 478.601 155.987 478.178 154.167 477.78C151.741 477.251 150 475.106 150 472.59V454.052C150 450.742 152.875 448.173 156.172 448.57C158.177 448.808 160.181 449.126 162.133 449.55C166.063 450.291 169.888 451.404 173.581 452.754C200.142 462.632 219.766 486.97 222.984 516.154H222.931Z" fill="white"/>
<path d="M467.796 588.201V435.931H413.685V411.259H548.715V435.931H494.604V588.201H467.796Z" fill="white"/>
<path d="M564.499 588.201V455.619H590.81V588.201H564.499ZM564.002 436.43V410.013H591.306V436.43H564.002Z" fill="white"/>
<path d="M606.667 588.201V411.259H632.978V521.163L692.302 455.619H725.563L673.934 511.443L727.548 588.201H697.266L656.31 527.891L632.978 552.813V588.201H606.667Z" fill="white"/>
<path d="M769.578 591.192C755.843 591.192 744.839 588.035 736.565 581.722C728.456 575.408 724.402 566.52 724.402 555.056C724.402 543.592 727.795 534.703 734.579 528.39C741.529 521.91 752.203 517.258 766.599 514.434L812.023 505.711C812.023 495.41 809.623 487.768 804.825 482.784C800.026 477.633 792.91 475.058 783.478 475.058C775.039 475.058 768.419 476.969 763.621 480.79C758.822 484.445 755.512 489.928 753.692 497.238L726.636 495.493C729.118 482.202 735.241 471.735 745.004 464.092C754.933 456.45 767.757 452.629 783.478 452.629C801.35 452.629 814.919 457.447 824.185 467.083C833.618 476.553 838.334 489.928 838.334 507.207V558.794C838.334 561.951 838.83 564.194 839.823 565.523C840.981 566.686 842.802 567.267 845.284 567.267H850V588.201C849.173 588.367 847.849 588.534 846.029 588.7C844.208 588.866 842.305 588.949 840.32 588.949C834.693 588.949 829.812 588.035 825.675 586.208C821.703 584.38 818.725 581.389 816.739 577.236C814.753 572.916 813.76 567.184 813.76 560.04L816.491 561.286C815.167 567.101 812.271 572.252 807.803 576.737C803.501 581.223 797.957 584.795 791.173 587.454C784.553 589.946 777.355 591.192 769.578 591.192ZM773.797 570.258C781.74 570.258 788.525 568.763 794.151 565.772C799.777 562.615 804.163 558.296 807.307 552.813C810.451 547.33 812.023 541.1 812.023 534.122V525.648L773.301 533.125C765.358 534.62 759.732 537.029 756.422 540.352C753.278 543.509 751.706 547.579 751.706 552.564C751.706 558.212 753.609 562.615 757.415 565.772C761.387 568.763 766.847 570.258 773.797 570.258Z" fill="white"/>
</svg>
