<svg width="1000" height="1000" viewBox="0 0 1000 1000" fill="none" xmlns="http://www.w3.org/2000/svg">
<path d="M839.909 354.819V400.507C839.909 412.554 831.948 423.351 820.098 426.385C813.584 428.081 807.071 430.044 800.739 432.364C794.225 434.505 787.984 437.183 781.923 440.127C774.867 443.518 768.082 447.266 761.569 451.371C716.066 480.015 685.671 525.347 685.671 582.725V783.147C685.671 797.87 673.458 809.917 658.532 809.917H616.92C601.993 809.917 589.781 797.87 589.781 783.147V582.725C589.781 471.538 661.427 376.77 761.659 340.63C774.234 336.079 787.35 332.421 800.829 329.833C803.272 329.387 805.624 328.941 808.067 328.494C824.712 325.728 840 338.221 840 354.908L839.909 354.819Z" fill="#0D76F2"/>
<path d="M839.909 354.819V400.507C839.909 412.554 831.948 423.351 820.098 426.385C813.584 428.081 807.071 430.044 800.739 432.364C794.225 434.505 787.984 437.183 781.923 440.127C774.867 443.518 768.082 447.266 761.569 451.371C716.066 480.015 685.671 525.347 685.671 582.725V783.147C685.671 797.87 673.458 809.917 658.532 809.917H616.92C601.993 809.917 589.781 797.87 589.781 783.147V582.725C589.781 471.538 661.427 376.77 761.659 340.63C774.234 336.079 787.35 332.421 800.829 329.833C803.272 329.387 805.624 328.941 808.067 328.494C824.712 325.728 840 338.221 840 354.908L839.909 354.819Z" fill="url(#paint0_linear_1162_376)" fill-opacity="0.3"/>
<path d="M800.564 216.592V263.172C800.564 275.933 791.519 286.998 778.854 289.408C772.974 290.478 767.184 291.817 761.394 293.334C639.27 324.031 548.717 433.433 548.717 563.359V783.145C548.717 797.958 536.595 809.915 521.578 809.915H479.785C464.768 809.915 452.646 797.958 452.646 783.145V563.359C452.646 456.812 495.707 362.134 568.529 294.048C569.524 293.155 570.699 290.657 569.885 287.801C569.252 285.571 567.896 284.589 565.182 284.589H454.908C443.147 284.589 436.815 298.51 444.866 306.987C452.917 315.464 460.154 323.674 467.21 332.508C471.824 338.308 472.095 346.339 468.296 352.675C459.883 366.685 452.374 381.23 445.59 396.133C441.067 406.305 436.905 416.567 433.287 427.008C430.663 434.325 420.713 435.128 416.914 428.346C379.734 362.491 316.409 312.966 240.783 293.691C235.174 292.263 229.476 290.924 223.686 289.854C210.841 287.355 201.432 276.469 201.432 263.619V216.77C201.432 201.957 213.554 190 228.57 190H773.425C788.442 190 800.564 201.957 800.564 216.77V216.592Z" fill="#0D76F2"/>
<path d="M800.564 216.592V263.172C800.564 275.933 791.519 286.998 778.854 289.408C772.974 290.478 767.184 291.817 761.394 293.334C639.27 324.031 548.717 433.433 548.717 563.359V783.145C548.717 797.958 536.595 809.915 521.578 809.915H479.785C464.768 809.915 452.646 797.958 452.646 783.145V563.359C452.646 456.812 495.707 362.134 568.529 294.048C569.524 293.155 570.699 290.657 569.885 287.801C569.252 285.571 567.896 284.589 565.182 284.589H454.908C443.147 284.589 436.815 298.51 444.866 306.987C452.917 315.464 460.154 323.674 467.21 332.508C471.824 338.308 472.095 346.339 468.296 352.675C459.883 366.685 452.374 381.23 445.59 396.133C441.067 406.305 436.905 416.567 433.287 427.008C430.663 434.325 420.713 435.128 416.914 428.346C379.734 362.491 316.409 312.966 240.783 293.691C235.174 292.263 229.476 290.924 223.686 289.854C210.841 287.355 201.432 276.469 201.432 263.619V216.77C201.432 201.957 213.554 190 228.57 190H773.425C788.442 190 800.564 201.957 800.564 216.77V216.592Z" fill="url(#paint1_linear_1162_376)" fill-opacity="0.3"/>
<path d="M410.129 554.431C410.038 557.376 410.038 560.321 410.038 563.355V783.23C410.038 798.043 397.826 810 382.899 810H342.915C327.898 810 315.776 797.953 315.776 783.14V582.719C315.776 525.697 285.833 480.545 240.782 451.989C233.998 447.617 226.942 443.691 219.524 440.121C213.644 437.266 207.583 434.767 201.522 432.625C197.723 431.198 193.832 429.948 190.033 428.788C187.048 427.896 180.535 426.468 174.293 425.13C165.97 423.345 160 416.117 160 407.64V345.175C160 334.021 169.86 325.365 181.168 326.704C188.043 327.507 194.918 328.577 201.612 330.005C215.091 332.504 228.208 336.252 240.873 340.803C331.968 374.087 399.272 456.094 410.309 554.431H410.129Z" fill="#0D76F2"/>
<path d="M410.129 554.431C410.038 557.376 410.038 560.321 410.038 563.355V783.23C410.038 798.043 397.826 810 382.899 810H342.915C327.898 810 315.776 797.953 315.776 783.14V582.719C315.776 525.697 285.833 480.545 240.782 451.989C233.998 447.617 226.942 443.691 219.524 440.121C213.644 437.266 207.583 434.767 201.522 432.625C197.723 431.198 193.832 429.948 190.033 428.788C187.048 427.896 180.535 426.468 174.293 425.13C165.97 423.345 160 416.117 160 407.64V345.175C160 334.021 169.86 325.365 181.168 326.704C188.043 327.507 194.918 328.577 201.612 330.005C215.091 332.504 228.208 336.252 240.873 340.803C331.968 374.087 399.272 456.094 410.309 554.431H410.129Z" fill="url(#paint2_linear_1162_376)" fill-opacity="0.3"/>
<defs>
<linearGradient id="paint0_linear_1162_376" x1="285.154" y1="326.558" x2="285.154" y2="809.991" gradientUnits="userSpaceOnUse">
<stop offset="0.25" stop-opacity="0"/>
<stop offset="1" stop-opacity="0.7"/>
</linearGradient>
<linearGradient id="paint1_linear_1162_376" x1="285.154" y1="326.558" x2="285.154" y2="809.991" gradientUnits="userSpaceOnUse">
<stop offset="0.25" stop-opacity="0"/>
<stop offset="1" stop-opacity="0.7"/>
</linearGradient>
<linearGradient id="paint2_linear_1162_376" x1="285.154" y1="326.558" x2="285.154" y2="809.991" gradientUnits="userSpaceOnUse">
<stop offset="0.25" stop-opacity="0"/>
<stop offset="1" stop-opacity="0.7"/>
</linearGradient>
</defs>
</svg>
